<mxfile host="app.diagrams.net" modified="2020-10-31T19:26:27.765Z" agent="5.0 (Windows)" etag="CdJHXX4EX4Ho8RCiGXoj" version="13.8.8" type="github">
  <diagram id="b6xReiiVfWbp93-vF_JI" name="Page-1">
    <mxGraphModel dx="1058" dy="564" grid="1" gridSize="10" guides="1" tooltips="1" connect="1" arrows="1" fold="1" page="1" pageScale="1" pageWidth="827" pageHeight="1169" math="0" shadow="0">
      <root>
        <mxCell id="0" />
        <mxCell id="1" parent="0" />
        <mxCell id="oIsRurDVyBBEBnvUEINs-1" value="User" style="swimlane;childLayout=stackLayout;horizontal=1;startSize=30;horizontalStack=0;rounded=1;fontSize=14;fontStyle=0;strokeWidth=2;resizeParent=0;resizeLast=1;shadow=0;dashed=0;align=center;" parent="1" vertex="1">
          <mxGeometry x="440" y="554" width="160" height="120" as="geometry" />
        </mxCell>
        <mxCell id="oIsRurDVyBBEBnvUEINs-2" value="userID&#xa;userName&#xa;Email&#xa;passWord&#xa;userType" style="align=left;strokeColor=none;fillColor=none;spacingLeft=4;fontSize=12;verticalAlign=top;resizable=0;rotatable=0;part=1;" parent="oIsRurDVyBBEBnvUEINs-1" vertex="1">
          <mxGeometry y="30" width="160" height="90" as="geometry" />
        </mxCell>
        <mxCell id="oIsRurDVyBBEBnvUEINs-3" value="Adminstrator" style="swimlane;childLayout=stackLayout;horizontal=1;startSize=30;horizontalStack=0;rounded=1;fontSize=14;fontStyle=0;strokeWidth=2;resizeParent=0;resizeLast=1;shadow=0;dashed=0;align=center;" parent="1" vertex="1">
          <mxGeometry x="450" y="254" width="160" height="160" as="geometry" />
        </mxCell>
        <mxCell id="oIsRurDVyBBEBnvUEINs-4" value="adminID&#xa;adminName&#xa;adminPassword" style="align=left;strokeColor=none;fillColor=none;spacingLeft=4;fontSize=12;verticalAlign=top;resizable=0;rotatable=0;part=1;" parent="oIsRurDVyBBEBnvUEINs-3" vertex="1">
          <mxGeometry y="30" width="160" height="130" as="geometry" />
        </mxCell>
        <mxCell id="oIsRurDVyBBEBnvUEINs-5" value="Tour" style="swimlane;childLayout=stackLayout;horizontal=1;startSize=30;horizontalStack=0;rounded=1;fontSize=14;fontStyle=0;strokeWidth=2;resizeParent=0;resizeLast=1;shadow=0;dashed=0;align=center;" parent="1" vertex="1">
          <mxGeometry x="150" y="544" width="160" height="120" as="geometry" />
        </mxCell>
        <mxCell id="oIsRurDVyBBEBnvUEINs-6" value="tourID&#xa;beaconID&#xa;userLocationtour&#xa;State&#xa;" style="align=left;strokeColor=none;fillColor=none;spacingLeft=4;fontSize=12;verticalAlign=top;resizable=0;rotatable=0;part=1;" parent="oIsRurDVyBBEBnvUEINs-5" vertex="1">
          <mxGeometry y="30" width="160" height="90" as="geometry" />
        </mxCell>
        <mxCell id="oIsRurDVyBBEBnvUEINs-7" value="Element" style="swimlane;childLayout=stackLayout;horizontal=1;startSize=30;horizontalStack=0;rounded=1;fontSize=14;fontStyle=0;strokeWidth=2;resizeParent=0;resizeLast=1;shadow=0;dashed=0;align=center;" parent="1" vertex="1">
          <mxGeometry x="150" y="254" width="160" height="120" as="geometry" />
        </mxCell>
        <mxCell id="oIsRurDVyBBEBnvUEINs-8" value="elementID&#xa;beaconID&#xa;" style="align=left;strokeColor=none;fillColor=none;spacingLeft=4;fontSize=12;verticalAlign=top;resizable=0;rotatable=0;part=1;" parent="oIsRurDVyBBEBnvUEINs-7" vertex="1">
          <mxGeometry y="30" width="160" height="90" as="geometry" />
        </mxCell>
        <mxCell id="oIsRurDVyBBEBnvUEINs-11" value="NotificationsList" style="swimlane;childLayout=stackLayout;horizontal=1;startSize=30;horizontalStack=0;rounded=1;fontSize=14;fontStyle=0;strokeWidth=2;resizeParent=0;resizeLast=1;shadow=0;dashed=0;align=center;" parent="1" vertex="1">
          <mxGeometry x="760" y="254" width="160" height="120" as="geometry" />
        </mxCell>
        <mxCell id="oIsRurDVyBBEBnvUEINs-12" value="notificationID&#xa;&#xa;announcement&#xa;" style="align=left;strokeColor=none;fillColor=none;spacingLeft=4;fontSize=12;verticalAlign=top;resizable=0;rotatable=0;part=1;" parent="oIsRurDVyBBEBnvUEINs-11" vertex="1">
          <mxGeometry y="30" width="160" height="90" as="geometry" />
        </mxCell>
        <mxCell id="oIsRurDVyBBEBnvUEINs-15" value="Â BorrowedBooksLIST." style="swimlane;childLayout=stackLayout;horizontal=1;startSize=30;horizontalStack=0;rounded=1;fontSize=14;fontStyle=0;strokeWidth=2;resizeParent=0;resizeLast=1;shadow=0;dashed=0;align=center;" parent="1" vertex="1">
          <mxGeometry x="460" y="794" width="160" height="120" as="geometry" />
        </mxCell>
        <mxCell id="oIsRurDVyBBEBnvUEINs-16" value="bookID&#xa;bookName&#xa;alertTime&#xa;bookStatus&#xa;" style="align=left;strokeColor=none;fillColor=none;spacingLeft=4;fontSize=12;verticalAlign=top;resizable=0;rotatable=0;part=1;" parent="oIsRurDVyBBEBnvUEINs-15" vertex="1">
          <mxGeometry y="30" width="160" height="90" as="geometry" />
        </mxCell>
        <mxCell id="oIsRurDVyBBEBnvUEINs-17" value="libraryCatalog" style="swimlane;childLayout=stackLayout;horizontal=1;startSize=30;horizontalStack=0;rounded=1;fontSize=14;fontStyle=0;strokeWidth=2;resizeParent=0;resizeLast=1;shadow=0;dashed=0;align=center;" parent="1" vertex="1">
          <mxGeometry x="820" y="544" width="160" height="120" as="geometry" />
        </mxCell>
        <mxCell id="oIsRurDVyBBEBnvUEINs-18" value="searchID&#xa;bName&#xa;authorName&#xa;ItemInfo" style="align=left;strokeColor=none;fillColor=none;spacingLeft=4;fontSize=12;verticalAlign=top;resizable=0;rotatable=0;part=1;" parent="oIsRurDVyBBEBnvUEINs-17" vertex="1">
          <mxGeometry y="30" width="160" height="90" as="geometry" />
        </mxCell>
        <mxCell id="YU0FvFcGYG7VNWClvzHV-2" value="" style="endArrow=none;html=1;rounded=0;exitX=1;exitY=0.25;exitDx=0;exitDy=0;" edge="1" parent="1" source="oIsRurDVyBBEBnvUEINs-4">
          <mxGeometry relative="1" as="geometry">
            <mxPoint x="610" y="313.5" as="sourcePoint" />
            <mxPoint x="760" y="315" as="targetPoint" />
          </mxGeometry>
        </mxCell>
        <mxCell id="YU0FvFcGYG7VNWClvzHV-3" value="" style="resizable=0;html=1;align=right;verticalAlign=bottom;" connectable="0" vertex="1" parent="YU0FvFcGYG7VNWClvzHV-2">
          <mxGeometry x="1" relative="1" as="geometry" />
        </mxCell>
        <mxCell id="YU0FvFcGYG7VNWClvzHV-4" value="0:*" style="edgeLabel;html=1;align=center;verticalAlign=middle;resizable=0;points=[];" vertex="1" connectable="0" parent="YU0FvFcGYG7VNWClvzHV-2">
          <mxGeometry x="0.8262" y="4" relative="1" as="geometry">
            <mxPoint as="offset" />
          </mxGeometry>
        </mxCell>
        <mxCell id="YU0FvFcGYG7VNWClvzHV-5" value="Manage" style="text;html=1;strokeColor=none;fillColor=none;align=center;verticalAlign=middle;whiteSpace=wrap;rounded=0;" vertex="1" parent="1">
          <mxGeometry x="660" y="294" width="40" height="20" as="geometry" />
        </mxCell>
        <mxCell id="YU0FvFcGYG7VNWClvzHV-6" value="1:*" style="text;html=1;strokeColor=none;fillColor=none;align=center;verticalAlign=middle;whiteSpace=wrap;rounded=0;" vertex="1" parent="1">
          <mxGeometry x="620" y="304" width="10" height="20" as="geometry" />
        </mxCell>
        <mxCell id="YU0FvFcGYG7VNWClvzHV-11" value="" style="endArrow=none;html=1;rounded=0;" edge="1" parent="1">
          <mxGeometry relative="1" as="geometry">
            <mxPoint x="228.32999999999998" y="374.17" as="sourcePoint" />
            <mxPoint x="228" y="540" as="targetPoint" />
          </mxGeometry>
        </mxCell>
        <mxCell id="YU0FvFcGYG7VNWClvzHV-12" value="1:*" style="text;html=1;strokeColor=none;fillColor=none;align=center;verticalAlign=middle;whiteSpace=wrap;rounded=0;" vertex="1" parent="1">
          <mxGeometry x="240" y="384" width="40" height="20" as="geometry" />
        </mxCell>
        <mxCell id="YU0FvFcGYG7VNWClvzHV-13" value="1:1" style="text;html=1;strokeColor=none;fillColor=none;align=center;verticalAlign=middle;whiteSpace=wrap;rounded=0;" vertex="1" parent="1">
          <mxGeometry x="230" y="514" width="40" height="20" as="geometry" />
        </mxCell>
        <mxCell id="YU0FvFcGYG7VNWClvzHV-14" value="0:*" style="text;html=1;strokeColor=none;fillColor=none;align=center;verticalAlign=middle;whiteSpace=wrap;rounded=0;" vertex="1" parent="1">
          <mxGeometry x="310" y="324" width="40" height="20" as="geometry" />
        </mxCell>
        <mxCell id="YU0FvFcGYG7VNWClvzHV-19" value="Manage" style="text;html=1;strokeColor=none;fillColor=none;align=center;verticalAlign=middle;whiteSpace=wrap;rounded=0;rotation=0;" vertex="1" parent="1">
          <mxGeometry x="360" y="294" width="40" height="20" as="geometry" />
        </mxCell>
        <mxCell id="oIsRurDVyBBEBnvUEINs-9" value="Beacon" style="swimlane;childLayout=stackLayout;horizontal=1;startSize=30;horizontalStack=0;rounded=1;fontSize=14;fontStyle=0;strokeWidth=2;resizeParent=0;resizeLast=1;shadow=0;dashed=0;align=center;" parent="1" vertex="1">
          <mxGeometry x="430" y="40" width="160" height="120" as="geometry" />
        </mxCell>
        <mxCell id="oIsRurDVyBBEBnvUEINs-10" value="beaconID&#xa;&#xa;" style="align=left;strokeColor=none;fillColor=none;spacingLeft=4;fontSize=12;verticalAlign=top;resizable=0;rotatable=0;part=1;" parent="oIsRurDVyBBEBnvUEINs-9" vertex="1">
          <mxGeometry y="30" width="160" height="90" as="geometry" />
        </mxCell>
        <mxCell id="YU0FvFcGYG7VNWClvzHV-21" value="" style="line;strokeWidth=1;rotatable=0;dashed=0;labelPosition=right;align=left;verticalAlign=middle;spacingTop=0;spacingLeft=6;points=[];portConstraint=eastwest;" vertex="1" parent="1">
          <mxGeometry x="310" y="314" width="140" height="10" as="geometry" />
        </mxCell>
        <mxCell id="YU0FvFcGYG7VNWClvzHV-16" value="1:1" style="text;html=1;strokeColor=none;fillColor=none;align=center;verticalAlign=middle;whiteSpace=wrap;rounded=0;" vertex="1" parent="1">
          <mxGeometry x="350" y="314" width="160" height="40" as="geometry" />
        </mxCell>
        <mxCell id="YU0FvFcGYG7VNWClvzHV-31" value="" style="endArrow=none;html=1;exitX=0.44;exitY=-0.025;exitDx=0;exitDy=0;exitPerimeter=0;" edge="1" parent="1" source="oIsRurDVyBBEBnvUEINs-15">
          <mxGeometry width="50" height="50" relative="1" as="geometry">
            <mxPoint x="529" y="784" as="sourcePoint" />
            <mxPoint x="529.17" y="674" as="targetPoint" />
            <Array as="points">
              <mxPoint x="529.17" y="754" />
            </Array>
          </mxGeometry>
        </mxCell>
        <mxCell id="YU0FvFcGYG7VNWClvzHV-32" value="1:1" style="text;html=1;strokeColor=none;fillColor=none;align=center;verticalAlign=middle;whiteSpace=wrap;rounded=0;" vertex="1" parent="1">
          <mxGeometry x="530" y="674" width="40" height="20" as="geometry" />
        </mxCell>
        <mxCell id="YU0FvFcGYG7VNWClvzHV-33" value="1:*" style="text;html=1;strokeColor=none;fillColor=none;align=center;verticalAlign=middle;whiteSpace=wrap;rounded=0;" vertex="1" parent="1">
          <mxGeometry x="540" y="764" width="40" height="20" as="geometry" />
        </mxCell>
        <mxCell id="YU0FvFcGYG7VNWClvzHV-34" value="Add" style="text;html=1;strokeColor=none;fillColor=none;align=center;verticalAlign=middle;whiteSpace=wrap;rounded=0;rotation=-90;" vertex="1" parent="1">
          <mxGeometry x="494" y="729" width="40" height="20" as="geometry" />
        </mxCell>
        <mxCell id="YU0FvFcGYG7VNWClvzHV-35" value="" style="endArrow=none;html=1;exitX=1;exitY=0.5;exitDx=0;exitDy=0;" edge="1" parent="1" source="oIsRurDVyBBEBnvUEINs-5">
          <mxGeometry width="50" height="50" relative="1" as="geometry">
            <mxPoint x="370" y="603.5" as="sourcePoint" />
            <mxPoint x="440" y="603.5" as="targetPoint" />
          </mxGeometry>
        </mxCell>
        <mxCell id="YU0FvFcGYG7VNWClvzHV-36" value="1:1" style="text;html=1;strokeColor=none;fillColor=none;align=center;verticalAlign=middle;whiteSpace=wrap;rounded=0;" vertex="1" parent="1">
          <mxGeometry x="310" y="584" width="40" height="20" as="geometry" />
        </mxCell>
        <mxCell id="YU0FvFcGYG7VNWClvzHV-37" value="0:*" style="text;html=1;strokeColor=none;fillColor=none;align=center;verticalAlign=middle;whiteSpace=wrap;rounded=0;" vertex="1" parent="1">
          <mxGeometry x="400" y="584" width="40" height="20" as="geometry" />
        </mxCell>
        <mxCell id="YU0FvFcGYG7VNWClvzHV-38" value="Start" style="text;html=1;strokeColor=none;fillColor=none;align=center;verticalAlign=middle;whiteSpace=wrap;rounded=0;" vertex="1" parent="1">
          <mxGeometry x="360" y="574" width="40" height="20" as="geometry" />
        </mxCell>
        <mxCell id="YU0FvFcGYG7VNWClvzHV-39" value="" style="endArrow=none;html=1;entryX=0;entryY=0.25;entryDx=0;entryDy=0;" edge="1" parent="1" target="oIsRurDVyBBEBnvUEINs-18">
          <mxGeometry width="50" height="50" relative="1" as="geometry">
            <mxPoint x="600" y="599" as="sourcePoint" />
            <mxPoint x="740" y="599" as="targetPoint" />
          </mxGeometry>
        </mxCell>
        <mxCell id="YU0FvFcGYG7VNWClvzHV-41" value="1:*" style="text;html=1;strokeColor=none;fillColor=none;align=center;verticalAlign=middle;whiteSpace=wrap;rounded=0;" vertex="1" parent="1">
          <mxGeometry x="600" y="574" width="40" height="20" as="geometry" />
        </mxCell>
        <mxCell id="YU0FvFcGYG7VNWClvzHV-42" value="0:*" style="text;html=1;strokeColor=none;fillColor=none;align=center;verticalAlign=middle;whiteSpace=wrap;rounded=0;" vertex="1" parent="1">
          <mxGeometry x="780" y="574" width="40" height="20" as="geometry" />
        </mxCell>
        <mxCell id="YU0FvFcGYG7VNWClvzHV-43" value="Search" style="text;html=1;strokeColor=none;fillColor=none;align=center;verticalAlign=middle;whiteSpace=wrap;rounded=0;" vertex="1" parent="1">
          <mxGeometry x="660" y="604" width="40" height="20" as="geometry" />
        </mxCell>
        <mxCell id="YU0FvFcGYG7VNWClvzHV-45" value="" style="endArrow=none;html=1;entryX=0.19;entryY=1.022;entryDx=0;entryDy=0;entryPerimeter=0;" edge="1" parent="1" target="oIsRurDVyBBEBnvUEINs-12">
          <mxGeometry width="50" height="50" relative="1" as="geometry">
            <mxPoint x="600" y="564" as="sourcePoint" />
            <mxPoint x="770" y="434" as="targetPoint" />
            <Array as="points">
              <mxPoint x="790" y="564" />
            </Array>
          </mxGeometry>
        </mxCell>
        <mxCell id="YU0FvFcGYG7VNWClvzHV-47" value="0:1" style="text;html=1;strokeColor=none;fillColor=none;align=center;verticalAlign=middle;whiteSpace=wrap;rounded=0;" vertex="1" parent="1">
          <mxGeometry x="740" y="384" width="40" height="20" as="geometry" />
        </mxCell>
        <mxCell id="YU0FvFcGYG7VNWClvzHV-48" value="0:*" style="text;html=1;strokeColor=none;fillColor=none;align=center;verticalAlign=middle;whiteSpace=wrap;rounded=0;" vertex="1" parent="1">
          <mxGeometry x="605" y="534" width="40" height="20" as="geometry" />
        </mxCell>
        <mxCell id="YU0FvFcGYG7VNWClvzHV-49" value="Receive" style="text;html=1;strokeColor=none;fillColor=none;align=center;verticalAlign=middle;whiteSpace=wrap;rounded=0;rotation=-90;" vertex="1" parent="1">
          <mxGeometry x="740" y="444" width="60" height="20" as="geometry" />
        </mxCell>
        <mxCell id="YU0FvFcGYG7VNWClvzHV-50" value="" style="endArrow=none;html=1;exitX=-0.006;exitY=0.088;exitDx=0;exitDy=0;exitPerimeter=0;" edge="1" parent="1" source="oIsRurDVyBBEBnvUEINs-6">
          <mxGeometry width="50" height="50" relative="1" as="geometry">
            <mxPoint x="70" y="580" as="sourcePoint" />
            <mxPoint x="430" y="99.41" as="targetPoint" />
            <Array as="points">
              <mxPoint x="70" y="582" />
              <mxPoint x="70" y="99" />
            </Array>
          </mxGeometry>
        </mxCell>
        <mxCell id="YU0FvFcGYG7VNWClvzHV-51" value="" style="endArrow=none;html=1;exitX=1;exitY=0.25;exitDx=0;exitDy=0;" edge="1" parent="1" source="oIsRurDVyBBEBnvUEINs-10">
          <mxGeometry width="50" height="50" relative="1" as="geometry">
            <mxPoint x="640" y="180" as="sourcePoint" />
            <mxPoint x="850" y="250" as="targetPoint" />
            <Array as="points">
              <mxPoint x="850" y="93" />
            </Array>
          </mxGeometry>
        </mxCell>
        <mxCell id="YU0FvFcGYG7VNWClvzHV-52" value="Add" style="text;html=1;strokeColor=none;fillColor=none;align=center;verticalAlign=middle;whiteSpace=wrap;rounded=0;rotation=-90;" vertex="1" parent="1">
          <mxGeometry x="220" y="440" width="40" height="20" as="geometry" />
        </mxCell>
        <mxCell id="YU0FvFcGYG7VNWClvzHV-53" value="1:1" style="text;html=1;strokeColor=none;fillColor=none;align=center;verticalAlign=middle;whiteSpace=wrap;rounded=0;" vertex="1" parent="1">
          <mxGeometry x="590" y="70" width="40" height="20" as="geometry" />
        </mxCell>
        <mxCell id="YU0FvFcGYG7VNWClvzHV-54" value="0:*" style="text;html=1;strokeColor=none;fillColor=none;align=center;verticalAlign=middle;whiteSpace=wrap;rounded=0;" vertex="1" parent="1">
          <mxGeometry x="800" y="230" width="40" height="20" as="geometry" />
        </mxCell>
        <mxCell id="YU0FvFcGYG7VNWClvzHV-55" value="Have" style="text;html=1;strokeColor=none;fillColor=none;align=center;verticalAlign=middle;whiteSpace=wrap;rounded=0;" vertex="1" parent="1">
          <mxGeometry x="740" y="100" width="40" height="20" as="geometry" />
        </mxCell>
        <mxCell id="YU0FvFcGYG7VNWClvzHV-56" value="1:1" style="text;html=1;strokeColor=none;fillColor=none;align=center;verticalAlign=middle;whiteSpace=wrap;rounded=0;" vertex="1" parent="1">
          <mxGeometry x="373" y="70" width="40" height="20" as="geometry" />
        </mxCell>
        <mxCell id="YU0FvFcGYG7VNWClvzHV-57" value="1:1" style="text;html=1;strokeColor=none;fillColor=none;align=center;verticalAlign=middle;whiteSpace=wrap;rounded=0;" vertex="1" parent="1">
          <mxGeometry x="90" y="554" width="40" height="20" as="geometry" />
        </mxCell>
      </root>
    </mxGraphModel>
  </diagram>
</mxfile>
